<?xml version="1.0" encoding="UTF-8" standalone="no"?>
<!-- Created with Inkscape (http://www.inkscape.org/) -->

<svg
   width="209mm"
   height="211mm"
   viewBox="0 0 209 211"
   version="1.1"
   id="svg6785"
   xmlns="http://www.w3.org/2000/svg"
   xmlns:svg="http://www.w3.org/2000/svg">
  <defs
     id="defs6782">
    <rect
       x="384.12958"
       y="524.44452"
       width="161.15382"
       height="47.929367"
       id="rect8478" />
    <filter
       style="color-interpolation-filters:sRGB"
       id="filter3454"
       x="-0.0029366825"
       y="-0.0038189136"
       width="1.0058745"
       height="1.0076094">
      <feGaussianBlur
         stdDeviation="0.011588449"
         id="feGaussianBlur3456" />
    </filter>
  </defs>
  <g
     id="layer1">
    <!-- <text
       xml:space="preserve"
       transform="scale(0.26458333)"
       id="text8476"
       style="font-style:normal;font-weight:normal;font-size:40px;line-height:1.25;font-family:sans-serif;white-space:pre;shape-inside:url(#rect8478);fill:#000000;fill-opacity:1;stroke:none"><tspan
         x="384.12891"
         y="611.19442"
         id="tspan27084"><tspan
           dx="0 28.67206 23.893328 11.093349 27.17865 13.013359 13.013359 28.031998 13.013351"
           style="font-weight:bold;font-size:42.6667px;-inkscape-font-specification:'sans-serif, Bold'"
           id="tspan27082">BE Clinic</tspan></tspan></text> -->
    <g
       id="g27050"
       transform="matrix(3.9372257,0,0,3.9372257,-380.88901,-370.43292)">
      <path
         style="mix-blend-mode:normal;fill:#ea005e;fill-opacity:1;fill-rule:nonzero;stroke:#100055;stroke-width:0.289278;stroke-miterlimit:4;stroke-dasharray:none;stroke-opacity:0.979466;filter:url(#filter3454)"
         d="M -61.398513,46.508678 C -73.131147,43.665659 -79.64244,35.502951 -79.662355,23.612701 l -0.0098,-5.832511 4.691332,0.332511 4.691332,0.332511 0.805451,-3.809731 c 0.442999,-2.095352 1.276492,-5.3102534 1.848161,-6.3784265 1.023107,-1.9116914 0.478061,-1.7520289 4.625828,0.3494445 2.3176,1.1742161 6.551896,3.953778 8.646786,5.602457 l 3.80889,2.997598 2.69111,-2.553956 c 1.48011,-1.404675 4.94111,-3.69607 7.69111,-5.0919881 l 5,-2.5380318 1.204896,2.7113168 c 0.662693,1.4912241 1.503934,4.1933311 1.869426,6.0046811 0.653419,3.238296 -0.0589,1.97157 4.13617,1.48144 8.397564,-0.981128 6.644613,-0.372389 6.987092,2.328161 0.884594,6.975285 -3.452804,17.504926 -9.697584,22.514759 -2.994562,2.402368 -13.798367,6.280017 -14.851033,5.33026 -0.193068,-0.174194 1.381932,-2.163734 3.5,-4.4212 4.677816,-4.985681 8.284791,-11.580779 8.322863,-15.217767 0.01549,-1.480041 0.47817,-2.969098 1.02817,-3.309017 3.098434,-1.914937 -0.508855,10.856226 -4.570509,16.181329 -4.413926,5.786956 2.999804,3.010573 8.407616,-3.148586 3.418692,-3.893674 5.032851,-6.900128 5.137946,-13.032743 l 0.07526,-4.391601 -4.55031,0.63944 c -2.18365,0.306861 -6.149729,1.311054 -8.777175,2.610539 -2.627446,1.299484 -5.013151,1.980882 -5.301566,1.514216 -0.288415,-0.466665 1.523814,-1.843577 4.027175,-3.059804 2.672106,-1.29821 4.551564,-2.893272 4.551564,-3.862832 0,-2.378598 -2.062317,-7.9499581 -2.942789,-7.9499581 -2.186054,0 -13.103769,8.2985801 -15.87459,12.0663131 l -3.208276,4.362577 2.510302,2.510303 2.510302,2.510302 2.236028,-2.236028 c 1.898111,-1.898111 2.049616,-2.534519 1.002525,-4.211178 -0.678426,-1.086333 -1.233502,-2.527686 -1.233502,-3.203006 0,-2.432475 3.038881,1.797352 5.000739,6.960542 l 1.953477,5.141135 -2.727108,3.29952 c -1.499909,1.814736 -3.627108,4.082994 -4.727108,5.040574 -1.934906,1.684389 -2.138325,1.591735 -6.25,-2.846747 -4.131445,-4.459823 -5.290914,-7.632953 -3.25,-8.894307 0.55,-0.339919 1,0.315132 1,1.455668 0,1.140536 1.58209,3.754594 3.515756,5.809017 l 3.515757,3.735315 3.461189,-4 c 2.423005,-2.8002 3.280867,-4.5999 2.860016,-6 -0.904759,-3.009978 -1.064543,-2.995927 -3.871962,0.340501 l -2.601442,3.091638 -3.076809,-3.504292 c -1.692245,-1.927361 -5.040091,-4.654852 -7.439657,-6.061091 -2.399566,-1.40624 -4.362848,-2.96404 -4.362848,-3.461778 0,-1.377934 1.173955,-1.096273 4.900956,1.175863 l 3.400955,2.073365 2.310702,-2.827103 c 1.270886,-1.554907 2.181584,-3.277103 2.023774,-3.827103 -0.386497,-1.347013 -10.659398,-8.5000001 -12.20744,-8.5000001 -1.843247,0 -3.760004,9.5034181 -3.136063,15.5488241 0.702487,6.806449 2.871538,11.305505 8.432395,17.490516 2.453033,2.728363 4.305858,4.92239 4.11739,4.875615 -0.188468,-0.04677 -2.694544,-0.654945 -5.569058,-1.351489 z m -1.273611,-3.130188 c 0,-0.311697 -1.162934,-2.091407 -2.584298,-3.954912 -2.803421,-3.675474 -5.415702,-11.166567 -5.415702,-15.530308 0,-2.775195 -1.509664,-3.948058 -5.081787,-3.948058 -4.188116,0 -1.358603,14.696818 3.692785,19.180758 3.367724,2.989411 9.389002,5.716602 9.389002,4.25252 z m 8.744573,-34.0216249 c -2.824798,-4.9518579 1.622994,-7.4493216 4.644918,-6.8156859 2.231714,0.4679449 3.173868,4.9872561 1.723185,6.7352222 -1.237494,1.4910876 -5.535058,1.5407866 -6.368103,0.080464 z"
         id="path994"
         transform="matrix(0.82965311,0,0.00438405,0.82965311,164.86431,94.133366)" />
      <text
         xml:space="preserve"
         style="font-style:normal;font-variant:normal;font-weight:bold;font-stretch:normal;font-size:11.2889px;line-height:1.25;font-family:sans-serif;-inkscape-font-specification:'sans-serif, Bold';font-variant-ligatures:normal;font-variant-caps:normal;font-variant-numeric:normal;font-variant-east-asian:normal;fill:#ea005e;fill-opacity:1;stroke:#080052;stroke-width:0.264583;stroke-opacity:1"
         x="99.683655"
         y="144.04453"
         id="text16403"><tspan
           id="tspan16401"
           style="font-style:normal;font-variant:normal;font-weight:bold;font-stretch:normal;font-size:11.2889px;font-family:sans-serif;-inkscape-font-specification:'sans-serif, Bold';font-variant-ligatures:normal;font-variant-caps:normal;font-variant-numeric:normal;font-variant-east-asian:normal;fill:#ea005e;fill-opacity:1;stroke:#080052;stroke-width:0.264583;stroke-opacity:1"
           x="99.683655"
           y="144.04453">BE Clinic</tspan></text>
    </g>
  </g>
</svg>
